<svg width="46" height="46" viewBox="0 0 46 46" fill="none" xmlns="http://www.w3.org/2000/svg">
  <rect x="3" y="3" width="40" height="40" rx="12" fill="#FFF7EC"/>
  <rect x="3.5" y="3.5" width="39" height="39" rx="11.5" stroke="#E4DACD"/>
  <path d="M15.3 18.2H30.7L32.5 34.5C32.6 35.7 31.7 36.8 30.5 36.8H15.5C14.3 36.8 13.4 35.7 13.5 34.5L15.3 18.2Z" fill="#0F766E"/>
  <path d="M15.3 18.2H30.7L32.5 34.5C32.6 35.7 31.7 36.8 30.5 36.8H15.5C14.3 36.8 13.4 35.7 13.5 34.5L15.3 18.2Z" stroke="#0A5E59" stroke-width="1.4" stroke-linejoin="round"/>
  <path d="M18.2 18.1V15.7C18.2 12.8 20.4 10.6 23 10.6C25.6 10.6 27.8 12.8 27.8 15.7V18.1" stroke="#D9461E" stroke-width="2.3" stroke-linecap="round"/>
  <path d="M19.2 28.9C20 29.6 21.1 30 22.4 30C23.8 30 24.7 29.5 24.7 28.6C24.7 27.6 23.7 27.3 22.4 27C20.5 26.6 19.4 25.8 19.4 24.3C19.4 22.7 20.8 21.7 22.8 21.7C24 21.7 25.2 22.1 26 22.8" stroke="#FFF7EC" stroke-width="1.65" stroke-linecap="round"/>
  <path d="M27.4 29C28.2 29.6 29.2 30 30.4 30C31.8 30 32.7 29.5 32.7 28.6C32.7 27.6 31.8 27.3 30.4 27C28.6 26.6 27.4 25.8 27.4 24.3C27.4 22.7 28.8 21.7 30.8 21.7C31.8 21.7 32.5 21.9 33.1 22.2" stroke="#FFF7EC" stroke-width="1.65" stroke-linecap="round"/>
  <path d="M13.8 35.4C17.4 37.4 25.6 38.1 31.9 34.2" stroke="#D9461E" stroke-width="1.4" stroke-linecap="round" opacity="0.45"/>
</svg>
